<svg id="Layer_1" height="512" viewBox="0 0 512 512" width="512" xmlns="http://www.w3.org/2000/svg" data-name="Layer 1"><path d="m449.26 145.692-183.62 105.1a6 6 0 0 0 0 10.416l183.62 105.1a6 6 0 0 0 7.223-.965 154.621 154.621 0 0 0 0-218.686 6 6 0 0 0 -7.223-.965zm1.917 207.886-10.814-6.188a154.352 154.352 0 0 0 22.893-137.475 6 6 0 1 0 -11.456 3.565 142.383 142.383 0 0 1 -21.914 127.912l-149.186-85.392 149.185-85.39a141.842 141.842 0 0 1 14.644 24.246 6 6 0 1 0 10.844-5.142 153.914 153.914 0 0 0 -15.007-25.1l10.813-6.189a142.627 142.627 0 0 1 0 195.156z"/><path d="m440.01 234.68a39.354 39.354 0 0 0 -39.31-39.31 38.924 38.924 0 0 0 -17.712 4.206 6 6 0 0 0 5.41 10.711 27.044 27.044 0 0 1 12.3-2.917 27.3 27.3 0 1 1 -23.313 13.062 6 6 0 0 0 -10.231-6.273 39.316 39.316 0 1 0 72.856 20.521z"/><path d="m410.38 240.68h7.5a6 6 0 0 0 0-12h-7.5a6 6 0 0 0 0 12z"/><path d="m380.56 228.68a6 6 0 0 0 0 12h9.41a6 6 0 0 0 0-12z"/><path d="m398.64 240.42a6 6 0 0 0 -6 6v6.55a6 6 0 1 0 12 0v-6.55a6 6 0 0 0 -6-6z"/><path d="m398.64 208.48a6 6 0 0 0 -6 6v8.46a6 6 0 0 0 12 0v-8.46a6 6 0 0 0 -6-6z"/><path d="m399.39 281.453a15.648 15.648 0 0 0 -10.23 3.671 15.148 15.148 0 0 0 .009 22.428 15.672 15.672 0 0 0 10.231 3.668c8.66 0 15.19-6.4 15.19-14.88s-6.535-14.887-15.2-14.887zm.01 17.767c-1.195 0-3.2-.374-3.2-2.88 0-2.386 1.735-2.887 3.19-2.887a3.805 3.805 0 0 1 2.416.774 2.5 2.5 0 0 1 .784 2.113c0 2.38-1.735 2.88-3.19 2.88z"/><path d="m336.677 247.766c-8.663 0-15.2 6.4-15.2 14.884a14.484 14.484 0 0 0 4.972 11.214 15.681 15.681 0 0 0 10.234 3.666c8.662 0 15.194-6.4 15.194-14.88s-6.533-14.884-15.2-14.884zm.009 17.764c-1.2 0-3.206-.374-3.206-2.88 0-2.383 1.739-2.884 3.2-2.884a3.811 3.811 0 0 1 2.42.775 2.5 2.5 0 0 1 .783 2.109c-.003 2.38-1.74 2.88-3.197 2.88z"/><path d="m436.5 282.28a6 6 0 1 0 -10.334 6.1l5 8.47a6 6 0 0 0 10.334-6.1z"/><path d="m416.749 365.915-176.85-110 175.213-112.54a6 6 0 0 0 1.78-8.332 221.366 221.366 0 1 0 1.757 239.173 6 6 0 0 0 -1.9-8.3zm-185.219 99.395c-115.414 0-209.31-93.9-209.31-209.31s93.9-209.31 209.31-209.31a208.8 208.8 0 0 1 171.936 89.91l-20.778 13.346a267.969 267.969 0 0 0 -21.237-23.867 244.9 244.9 0 0 0 -46.723-37.05c-18.287-10.979-37.2-18.345-56.22-21.895a147.8 147.8 0 0 0 -26.978-2.5c-24.329 0-48.573 6.12-72.058 18.19-19.928 10.241-39.4 24.8-57.865 43.257a6 6 0 1 0 8.485 8.486c38.454-38.445 79.308-57.937 121.438-57.937a134.807 134.807 0 0 1 14.032.746 39.312 39.312 0 1 0 71.791 27.544 242.517 242.517 0 0 1 35.614 29.642 256.612 256.612 0 0 1 19.574 21.9l-147.113 94.49a6 6 0 0 0 .072 10.148l148.62 92.438a256.294 256.294 0 0 1 -21.153 23.9c-19.5 19.5-40.014 34.319-60.965 44.056a6 6 0 1 0 5.057 10.882c22.228-10.33 43.893-25.959 64.395-46.455a267.425 267.425 0 0 0 22.914-26.013l20.832 12.958a208.384 208.384 0 0 1 -173.67 92.444zm46.99-370.18a6 6 0 0 0 6-6v-1.858a171.113 171.113 0 0 1 21.273 10.428c.015.371.037.741.037 1.114a27.315 27.315 0 1 1 -46.63-19.314q6.669 1.394 13.32 3.464v6.166a6 6 0 0 0 6 6z"/><path d="m267.285 430.563a135.817 135.817 0 0 1 -57.019 3.1 39.31 39.31 0 1 0 -68.37-29.209 246.133 246.133 0 0 1 -31.8-27.013c-38.445-38.457-57.936-79.315-57.936-121.441 0-36.7 14.972-72.7 44.5-106.986a6 6 0 0 0 -9.094-7.831c-31.456 36.527-47.406 75.157-47.406 114.817 0 24.329 6.12 48.573 18.19 72.059 10.241 19.927 24.795 39.4 43.257 57.864a247.329 247.329 0 0 0 44.266 35.559 175.466 175.466 0 0 0 49.011 21.241 147.108 147.108 0 0 0 75.534-.576 6 6 0 1 0 -3.133-11.584zm-71.755-.082q-4.907-1.334-9.811-3.044a5.976 5.976 0 0 0 1.371-3.817v-5.59a6 6 0 0 0 -12 0v5.26a172.882 172.882 0 0 1 -16.12-8.016 5.96 5.96 0 0 0 .97.086h9.41a6 6 0 1 0 0-12h-9.41a6 6 0 0 0 -4.643 9.8c-.335-.2-.67-.4-1-.6a27.309 27.309 0 1 1 54.103-5.25 27.214 27.214 0 0 1 -12.87 23.171z"/><path d="m150.05 225.12a39.315 39.315 0 1 0 -39.31-39.32 39.359 39.359 0 0 0 39.31 39.32zm0-66.63a27.315 27.315 0 1 1 -27.31 27.31 27.341 27.341 0 0 1 27.31-27.31z"/><path d="m150.05 182.12a6 6 0 0 0 6-6v-6.55a6 6 0 0 0 -12 0v6.55a6 6 0 0 0 6 6z"/><path d="m150.05 190.53a6 6 0 0 0 -6 6v5.59a6 6 0 0 0 12 0v-5.59a6 6 0 0 0 -6-6z"/><path d="m161.8 193.86h6.54a6 6 0 1 0 0-12h-6.54a6 6 0 0 0 0 12z"/><path d="m144.31 187.86a6 6 0 0 0 -6-6h-9.41a6 6 0 1 0 0 12h9.41a6 6 0 0 0 6-6z"/><path d="m250.64 350.59c8.483 0 14.88-6.535 14.88-15.2a15.654 15.654 0 0 0 -3.667-10.227 14.492 14.492 0 0 0 -11.213-4.963c-8.488 0-14.888 6.535-14.888 15.2s6.4 15.19 14.888 15.19zm0-18.39a2.5 2.5 0 0 1 2.109.781 3.79 3.79 0 0 1 .771 2.408c0 1.195-.374 3.2-2.88 3.2-2.387 0-2.888-1.735-2.888-3.189 0-1.194.376-3.2 2.888-3.2z"/><path d="m128.22 305.22c0-8.483-6.535-14.88-15.2-14.88s-15.19 6.4-15.19 14.88 6.535 14.887 15.2 14.887 15.19-6.399 15.19-14.887zm-12.782 2.116a3.784 3.784 0 0 1 -2.408.771c-1.2 0-3.2-.375-3.2-2.887 0-2.38 1.734-2.88 3.19-2.88 1.2 0 3.2.374 3.2 2.88a2.507 2.507 0 0 1 -.782 2.116z"/><path d="m263.94 191.8c8.483 0 14.88-6.535 14.88-15.2s-6.4-15.189-14.88-15.189-14.887 6.535-14.887 15.2 6.4 15.189 14.887 15.189zm0-18.39c2.38 0 2.88 1.734 2.88 3.189a3.811 3.811 0 0 1 -.774 2.418 3.239 3.239 0 0 1 -4.223 0 3.786 3.786 0 0 1 -.77-2.406c0-1.195.375-3.201 2.887-3.201z"/><path d="m187.09 391.07a6 6 0 0 0 -12 0v6.55a6 6 0 0 0 12 0z"/><path d="m192.83 403.36a6 6 0 0 0 0 12h6.55a6 6 0 0 0 0-12z"/><path d="m272.52 115.13a6 6 0 0 0 12 0v-5.59a6 6 0 0 0 -12 0z"/><path d="m290.26 106.87h6.55a6 6 0 0 0 0-12h-6.55a6 6 0 0 0 0 12z"/><path d="m266.77 94.87h-9.41a6 6 0 0 0 0 12h9.41a6 6 0 0 0 0-12z"/><path d="m88.127 247.4a6 6 0 0 0 3.247 7.84l12 4.969a6 6 0 0 0 4.592-11.087l-12-4.969a6 6 0 0 0 -7.839 3.247z"/><path d="m229.153 165.213a5.993 5.993 0 0 0 7.061-4.706l2-10a6 6 0 0 0 -11.768-2.354l-2 10a6 6 0 0 0 4.707 7.06z"/><path d="m294.336 396a5.968 5.968 0 0 0 2.971-.792l14-8a6 6 0 0 0 -5.953-10.418l-14 8a6 6 0 0 0 2.982 11.21z"/><path d="m199 318.342-11.33 4a6 6 0 1 0 3.994 11.316l11.33-4a6 6 0 1 0 -3.994-11.316z"/><path d="m187.574 265.33a6 6 0 0 0 8.086-2.575l5.78-11.18a6 6 0 0 0 -10.66-5.511l-5.78 11.181a6 6 0 0 0 2.574 8.085z"/><path d="m150.993 123.331a6.026 6.026 0 0 0 1.089-.1l12-2.2a6 6 0 0 0 -2.164-11.8l-12 2.2a6 6 0 0 0 1.075 11.9z"/><path d="m123.763 369.3 8 .76q.289.027.574.027a6 6 0 0 0 .56-11.973l-8-.76a6 6 0 1 0 -1.134 11.946z"/><path d="m328.614 155.611 4.35 3.431a6 6 0 0 0 7.432-9.423l-4.35-3.431a6 6 0 0 0 -7.432 9.423z"/></svg>