<?xml version="1.0" encoding="iso-8859-1"?>
<!-- Generator: Adobe Illustrator 19.0.0, SVG Export Plug-In . SVG Version: 6.00 Build 0)  -->
<svg version="1.1" id="Capa_1" xmlns="http://www.w3.org/2000/svg" xmlns:xlink="http://www.w3.org/1999/xlink" x="0px" y="0px"
	 viewBox="0 0 512 512" style="enable-background:new 0 0 512 512;" xml:space="preserve">
<path style="fill:#DD6A56;" d="M121.529,61.936l30.138,7.739c27.491,7.06,48.959,28.526,56.018,56.018l0,0
	c7.059,27.491,28.526,48.959,56.018,56.018l0,0c27.491,7.06,48.959,28.526,56.018,56.018l0,0
	c7.06,27.491,28.526,48.959,56.018,56.018l0,0c27.491,7.06,48.959,28.526,56.018,56.018l7.739,30.138
	c2.298,8.946-0.3,18.442-6.832,24.973l-81.37,81.37c-14.308,14.308-38.749,7.622-43.781-11.977l-0.053-0.207
	c-7.06-27.491-28.526-48.959-56.018-56.018l0,0c-27.491-7.06-48.959-28.526-56.018-56.018l0,0
	c-7.06-27.491-28.526-48.959-56.018-56.018l0,0c-27.491-7.06-48.959-28.526-56.018-56.018l0,0
	c-7.06-27.491-28.526-48.959-56.018-56.018l-0.207-0.053c-19.599-5.033-26.285-29.473-11.977-43.781l81.37-81.37
	C103.087,62.236,112.581,59.638,121.529,61.936z"/>
<path style="fill:#F298B8;" d="M68.638,96.685l47.122,12.1c25.919,6.656,46.159,26.895,52.815,52.815l1.309,5.099
	c6.656,25.919,26.895,46.159,52.815,52.815l5.099,1.309c25.919,6.656,46.159,26.895,52.814,52.815l1.309,5.099
	c6.656,25.919,26.895,46.159,52.815,52.815l5.099,1.309c25.919,6.656,46.159,26.895,52.815,52.815l12.099,47.122l-43.099,43.1
	l-12.1-47.122c-6.656-25.919-26.895-46.159-52.815-52.815l-5.099-1.309c-25.919-6.656-46.159-26.895-52.815-52.815l-1.309-5.099
	c-6.656-25.919-26.895-46.159-52.815-52.815l-5.099-1.309c-25.919-6.656-46.159-26.895-52.815-52.814l-1.309-5.099
	c-6.656-25.919-26.895-46.159-52.815-52.815l-47.122-12.1L68.638,96.685z"/>
<path style="opacity:0.1;enable-background:new    ;" d="M251.442,418.045c27.491,7.06,48.959,28.526,56.018,56.018l0.053,0.207
	c5.033,19.599,29.473,26.285,43.781,11.977l39.885-39.885c-12.264-3.634-22.634-16.196-28.564-38.866
	c-4.958-18.948-16.483-33.681-31.343-43.827c7.734-10.872,13.554-23.217,16.982-36.566c4.009-15.614,16.043-27.854,31.516-32.194
	c-1.33-0.419-2.671-0.813-4.031-1.163l0,0c-27.491-7.06-48.959-28.526-56.018-56.018l0,0c-7.06-27.491-28.527-48.959-56.018-56.018
	l0,0c-27.491-7.06-48.959-28.526-56.018-56.018l0,0c-0.328-1.276-0.697-2.535-1.086-3.785
	c-16.128,10.694-29.254,25.492-37.929,42.96c-16.864-25.853-47.093-35.822-71.811-36.945c-21.373-0.971-28.245-15.544-28.202-31.257
	l-53.472,53.472c-14.308,14.308-7.622,38.749,11.977,43.781l0.207,0.053c27.491,7.06,48.959,28.526,56.018,56.018l0,0
	c7.06,27.491,28.527,48.959,56.018,56.018l0,0c27.491,7.06,48.959,28.526,56.018,56.018l0,0
	C202.483,389.518,223.95,410.985,251.442,418.045L251.442,418.045z"/>
<path style="fill:#DD6A56;" d="M390.472,18.879l-30.138,7.739c-27.491,7.06-48.959,28.526-56.018,56.018l0,0
	c-7.06,27.491-28.526,48.959-56.018,56.018l0,0c-27.491,7.06-48.959,28.526-56.018,56.018l0,0
	c-7.06,27.491-28.526,48.959-56.018,56.018l0,0c-27.491,7.06-48.959,28.526-56.018,56.018l-7.738,30.138
	c-2.297,8.946,0.3,18.442,6.832,24.973l81.37,81.37c14.308,14.308,38.75,7.622,43.781-11.977l0.053-0.207
	c7.06-27.491,28.526-48.959,56.018-56.018l0,0c27.491-7.06,48.959-28.526,56.018-56.018l0,0
	c7.06-27.491,28.526-48.959,56.018-56.018l0,0c27.491-7.06,48.959-28.526,56.018-56.018l0,0
	c7.059-27.491,28.526-48.959,56.018-56.018l0.207-0.053c19.599-5.033,26.285-29.473,11.977-43.781l-81.37-81.37
	C408.912,19.179,399.418,16.582,390.472,18.879z"/>
<path style="fill:#F298B8;" d="M443.361,53.627l-47.122,12.1c-25.919,6.656-46.159,26.895-52.814,52.815l-1.309,5.099
	c-6.656,25.919-26.895,46.159-52.815,52.814l-5.099,1.309c-25.919,6.656-46.159,26.895-52.815,52.815l-1.309,5.099
	c-6.656,25.919-26.895,46.159-52.815,52.815l-5.099,1.309c-25.919,6.656-46.159,26.895-52.815,52.815l-12.1,47.122l43.1,43.1
	l12.099-47.122c6.656-25.919,26.895-46.159,52.815-52.815l5.099-1.309c25.919-6.656,46.159-26.895,52.815-52.815l1.309-5.099
	c6.656-25.919,26.895-46.159,52.815-52.815l5.099-1.309c25.919-6.656,46.159-26.895,52.815-52.815l1.309-5.099
	c6.656-25.919,26.895-46.159,52.815-52.815l47.122-12.1L443.361,53.627z"/>
<path style="opacity:0.05;enable-background:new    ;" d="M215.143,309.174c-22.842-39.899-28.633-74.744-23.157-113.44
	c-7.336,26.979-28.591,47.988-55.725,54.955l0,0c-27.491,7.06-48.959,28.526-56.018,56.018l-7.738,30.138
	c-2.297,8.946,0.3,18.442,6.832,24.973l81.37,81.37c14.308,14.308,38.749,7.622,43.781-11.977l0.053-0.207
	c7.06-27.491,28.526-48.959,56.018-56.018l0,0c27.491-7.06,48.959-28.526,56.018-56.018l0,0c1.023-3.985,2.358-7.837,3.961-11.543
	C259.403,343.59,228.599,332.678,215.143,309.174z"/>
<g style="opacity:0.1;">
	<circle cx="336.448" cy="188.658" r="7.954"/>
	<circle cx="375.266" cy="50.007" r="7.954"/>
	<circle cx="177.088" cy="120.512" r="7.954"/>
	<circle cx="359.357" cy="373.806" r="7.954"/>
	<circle cx="99.293" cy="217.686" r="7.954"/>
	<circle cx="153.1" cy="330.669" r="7.954"/>
	<circle cx="260.073" cy="350.077" r="7.954"/>
	<circle cx="229.625" cy="182.638" r="7.954"/>
</g>
<g style="opacity:0.2;">
	<circle style="fill:#FFFFFF;" cx="249.204" cy="269.992" r="7.954"/>
	<circle style="fill:#FFFFFF;" cx="107.253" cy="133.311" r="7.954"/>
	<circle style="fill:#FFFFFF;" cx="421.723" cy="155.58" r="7.954"/>
	<circle style="fill:#FFFFFF;" cx="328.489" cy="447.931" r="7.954"/>
</g>
<path d="M502.117,101.777l-81.371-81.371c-8.365-8.365-20.684-11.736-32.141-8.791l-30.139,7.739
	c-30.143,7.74-53.677,31.273-61.417,61.416c-6.379,24.844-25.774,44.24-50.619,50.62c-8.654,2.222-16.761,5.753-24.108,10.361
	c-3.272-5.599-5.751-11.598-7.376-17.924c-7.74-30.144-31.274-53.678-61.417-61.417l-30.138-7.738
	c-11.461-2.944-23.775,0.426-32.142,8.792L9.882,144.835c-8.647,8.648-11.884,20.854-8.656,32.651
	c3.228,11.797,12.226,20.656,24.085,23.701l0.193,0.049c24.844,6.38,44.24,25.775,50.619,50.621
	c2.206,8.588,5.715,16.68,10.412,24.146c-6.191,8.541-10.845,18.283-13.556,28.84l-7.739,30.138
	c-2.943,11.459,0.427,23.775,8.792,32.142l81.371,81.371c6.443,6.443,14.861,9.882,23.614,9.882c2.995,0,6.029-0.403,9.036-1.226
	c11.797-3.228,20.655-12.227,23.69-24.049l0.06-0.229c1.939-7.549,5.086-14.591,9.215-20.922
	c8.587,6.159,18.322,10.731,28.557,13.359c11.497,2.953,22.138,8.818,30.768,16.964c1.449,1.368,3.299,2.045,5.147,2.045
	c1.992,0,3.98-0.789,5.456-2.353c2.843-3.013,2.705-7.758-0.308-10.601c-10.473-9.883-23.382-17.001-37.333-20.583
	c-8.135-2.089-15.887-5.669-22.777-10.473c8.698-8.581,19.63-14.907,31.893-18.056c4.903-1.259,9.627-2.943,14.141-4.998
	c4.271,1.934,8.696,3.5,13.206,4.658l5.099,1.309c23.272,5.976,41.439,24.144,47.415,47.416l11.036,42.979l-7.329,7.329
	c-4.791,4.79-11.555,6.583-18.088,4.796c-6.535-1.788-11.441-6.773-13.132-13.357l-0.048-0.184c-0.75-2.922-1.664-5.832-2.717-8.647
	c-1.45-3.88-5.772-5.849-9.649-4.4c-3.88,1.45-5.851,5.771-4.4,9.649c0.867,2.32,1.62,4.718,2.244,7.15l0.048,0.184
	c3.042,11.846,11.899,20.845,23.696,24.071c3.008,0.823,6.041,1.226,9.036,1.226c8.752,0,17.172-3.44,23.615-9.883l81.37-81.37
	c8.365-8.366,11.734-20.683,8.792-32.141l-7.738-30.138c-7.741-30.143-31.273-53.678-61.417-61.417
	c-7.339-1.884-14.369-4.983-20.737-9.102c5.44-3.132,11.343-5.561,17.593-7.166c30.143-7.739,53.677-31.273,61.417-61.417
	c6.379-24.843,25.774-44.24,50.621-50.62l0.205-0.053c11.846-3.042,20.845-11.9,24.071-23.697
	C514.002,122.631,510.766,110.426,502.117,101.777z M101.859,74.07c4.635-4.634,11.458-6.5,17.805-4.871l30.138,7.739
	c24.843,6.38,44.239,25.775,50.619,50.621c2.124,8.268,5.452,16.076,9.888,23.309c-10.488,9.523-18.576,21.627-23.307,35.355
	c-4.525-6.456-7.876-13.688-9.853-21.391l-1.31-5.099c-7.336-28.57-29.642-50.876-58.213-58.213L83.239,92.69L101.859,74.07z
	 M70.917,105.012l42.978,11.036c23.271,5.977,41.44,24.144,47.415,47.416l1.31,5.099c3.327,12.952,9.802,24.827,18.832,34.636
	c-6.279,14.542-17.273,26.492-31.106,33.972c-7.863-8.174-13.461-18.19-16.298-29.238l-1.31-5.099
	c-7.337-28.571-29.641-50.877-58.213-58.213l-34.388-8.83L70.917,105.012z M29.221,186.704l-0.193-0.049
	c-6.563-1.686-11.547-6.593-13.334-13.128c-1.788-6.535,0.005-13.296,4.796-18.087l7.329-7.329l42.979,11.036
	c23.271,5.976,41.439,24.144,47.415,47.416l1.31,5.099c2.985,11.621,8.456,22.312,16.031,31.446
	c-0.385,0.106-0.768,0.218-1.156,0.318c-14.3,3.672-27.107,10.902-37.451,20.702c-2.738-5.045-4.854-10.395-6.294-16.003
	C82.91,217.982,59.378,194.448,29.221,186.704z M155.188,383.848l-8.829,34.388l-30.778-30.778l11.036-42.979
	c5.975-23.272,24.142-41.439,47.415-47.415l5.1-1.31c28.57-7.336,50.876-29.641,58.213-58.213l1.309-5.098
	c5.976-23.271,24.144-41.439,47.417-47.415l5.098-1.31c24.273-6.233,43.95-22.974,53.984-45.931
	c1.659-3.795-0.073-8.216-3.868-9.875c-3.798-1.66-8.216,0.073-9.875,3.869c-8.172,18.698-24.198,32.333-43.972,37.41l-5.098,1.31
	c-28.57,7.336-50.877,29.642-58.214,58.213l-1.309,5.098c-5.976,23.271-24.144,41.439-47.415,47.415l-5.1,1.31
	c-28.571,7.336-50.878,29.642-58.213,58.212l-8.829,34.388l-18.621-18.621c-4.635-4.634-6.501-11.456-4.87-17.805l7.739-30.138
	c6.379-24.843,25.774-44.24,50.619-50.619c4.789-1.23,9.408-2.861,13.826-4.851c0.004-0.002,0.008-0.004,0.011-0.006
	c23.387-10.537,41.069-31.21,47.579-56.561c6.379-24.843,25.775-44.24,50.62-50.62c30.143-7.74,53.677-31.273,61.417-61.417
	c6.379-24.843,25.774-44.24,50.619-50.62l30.139-7.739c6.348-1.632,13.17,0.237,17.805,4.871l18.62,18.621l-34.388,8.83
	c-21.741,5.583-40.335,20.106-51.015,39.847c-1.971,3.643-0.615,8.193,3.028,10.164c1.134,0.614,2.356,0.905,3.562,0.905
	c2.665,0,5.246-1.424,6.603-3.933c8.698-16.08,23.844-27.909,41.553-32.456l42.979-11.036l30.778,30.778l-34.388,8.829
	c-28.571,7.336-50.878,29.642-58.213,58.212l-1.31,5.1c-5.975,23.271-24.143,41.439-47.416,47.416l-5.098,1.31
	c-28.57,7.336-50.877,29.641-58.214,58.213l-1.309,5.098c-5.976,23.272-24.143,41.439-47.417,47.415l-5.098,1.31
	C184.83,332.971,162.523,355.278,155.188,383.848z M365.641,461.293l-8.829-34.387c-7.336-28.571-29.642-50.877-58.213-58.213
	l-5.099-1.309c-0.114-0.029-0.225-0.067-0.339-0.097c11.282-8.664,20.311-20.089,26.123-33.297
	c4.375,2.009,8.918,3.624,13.585,4.822l5.099,1.309c23.272,5.977,41.44,24.144,47.415,47.416l11.036,42.979L365.641,461.293z
	 M373.874,301.01c24.844,6.38,44.239,25.775,50.619,50.62l7.739,30.139c1.631,6.348-0.235,13.17-4.871,17.805l-18.62,18.62
	l-8.829-34.387c-7.336-28.57-29.642-50.876-58.213-58.213l-5.099-1.309c-4.294-1.103-8.458-2.648-12.446-4.592
	c3.525-12.831,10.533-24.158,19.972-32.916C353.001,293.379,363.167,298.262,373.874,301.01z M496.307,130.47
	c-1.787,6.535-6.772,11.442-13.336,13.128l-0.205,0.053c-30.144,7.74-53.677,31.273-61.417,61.416
	c-6.38,24.844-25.775,44.24-50.619,50.62c-11.577,2.973-22.174,8.282-31.28,15.394c-0.009,0.007-0.019,0.015-0.028,0.022
	c-14.59,11.404-25.344,27.446-30.109,46c-6.38,24.844-25.774,44.24-50.619,50.62c-30.143,7.74-53.677,31.273-61.411,61.394
	l-0.059,0.229c-1.685,6.563-6.592,11.547-13.126,13.334c-6.536,1.788-13.297-0.004-18.088-4.795l-7.329-7.329l11.036-42.979
	c5.975-23.272,24.143-41.439,47.416-47.416l5.098-1.309c28.57-7.337,50.877-29.642,58.214-58.213l1.309-5.098
	c5.976-23.271,24.143-41.439,47.417-47.415l5.098-1.31c28.571-7.336,50.878-29.642,58.213-58.212l1.31-5.1
	c5.975-23.271,24.143-41.439,47.415-47.416l42.979-11.036l7.329,7.329C496.302,117.174,498.095,123.935,496.307,130.47z"/>
<g>
</g>
<g>
</g>
<g>
</g>
<g>
</g>
<g>
</g>
<g>
</g>
<g>
</g>
<g>
</g>
<g>
</g>
<g>
</g>
<g>
</g>
<g>
</g>
<g>
</g>
<g>
</g>
<g>
</g>
</svg>
