<?xml version="1.0" encoding="iso-8859-1"?>
<!-- Generator: Adobe Illustrator 19.0.0, SVG Export Plug-In . SVG Version: 6.00 Build 0)  -->
<svg version="1.1" id="Capa_1" xmlns="http://www.w3.org/2000/svg" xmlns:xlink="http://www.w3.org/1999/xlink" x="0px" y="0px"
	 viewBox="0 0 511.999 511.999" style="enable-background:new 0 0 511.999 511.999;" xml:space="preserve">
<path style="fill:#FFC478;" d="M501.695,257.909L10,198.991v75.535c0,17.377,13.057,33.234,29.724,38.153
	c30.724,9.078,48.181,3.339,73.766,3.339c33.773,0,60.958,7.968,83.674,25.815c50.86,39.982,92.712,81.784,166.938,81.784
	c71.296,0,137.803-26.205,137.803-98.101v-67.607L501.695,257.909L501.695,257.909z"/>
<path style="fill:#FD6244;" d="M281.338,90.692c-56.712-5.599-120.022-1.47-173.307,15.317v0.01
	c-35.123,11.068-64.428,27.265-83.104,48.351C16.399,163.997,11.1,175.445,10,188.473v10.518c2.985,36.987,34.4,61.8,73.256,58.559
	c26.735-2.559,52.92-2.09,77.795,2.939c26.895,5.429,52.28,16.177,75.195,34.183c36.718,28.875,61.607,52.691,92.552,63.138
	c29.608,10.004,60.373,5.74,90.952-2.57c44.321-12.118,79.615-51.45,81.944-97.331C507.131,150.972,388.296,101.211,281.338,90.692z
	"/>
<path d="M347.935,253.02c5.519,0,9.998-4.479,9.998-9.998c0-5.519-4.479-9.998-9.998-9.998s-9.998,4.479-9.998,9.998
	C337.937,248.541,342.416,253.02,347.935,253.02z"/>
<path d="M188.489,80.345c-35.263,3.209-69.18,10.928-83.891,16.273C59.691,110.841,4.121,140.433,0.011,187.4
	c-0.003,0.031-0.007,0.063-0.01,0.094c-0.003,0.039,0,87.031,0,87.031c0,21.354,15.516,41.433,36.889,47.741
	c32.584,9.628,51.881,3.749,76.598,3.749c51.83,0,70.974,18.285,95.095,37.759c44.494,35.916,86.521,69.841,155.517,69.841
	c78.108,0,147.801-30.684,147.801-108.099c0,0,0.088-68.709,0-69.243C516.891,117.874,330.27,67.387,188.489,80.345z
	 M491.709,257.403c-1.893,37.282-28.07,70.972-64.884,85.005l29.023-174.146C481.39,193.25,493.451,223.163,491.709,257.403z
	 M359.006,115.759l-14.355,86.168c-1.014,6.09,3.679,11.643,9.874,11.643c4.799,0,9.035-3.466,9.85-8.356l13.842-83.091
	c23.163,8.475,43.228,18.917,59.859,31.132l-32.541,195.258c-26.073,6.022-46.801,6.728-65.414,2.18l11.096-66.573
	c0.908-5.446-2.771-10.598-8.218-11.506c-5.445-0.907-10.598,2.771-11.506,8.218l-10.509,63.045
	c-20.845-9.748-40.702-26.61-64.119-45.523l32.78-196.696C314.143,104.557,337.398,109.285,359.006,115.759z M198.002,99.628
	c23.702-1.769,47.741-1.744,71.697,0.085l-30.74,184.458c-19.583-14.643-41.897-25.151-66.492-31.33L198.002,99.628z M117,113.738
	c18.658-5.468,38.901-9.524,60.396-12.111l-24.543,147.265c-19.48-3.01-38.446-3.444-57.997-2.259L117,113.738z M19.998,188.974
	c0.945-10.326,5.117-19.737,12.414-27.975c14.059-15.872,35.692-29.565,63.116-40.051L74.383,247.842
	c-28.11-0.799-51.848-19.632-54.384-49.332C19.998,198.51,19.998,188.974,19.998,188.974z M491.907,325.516
	c0,79.519-89.379,88.103-127.805,88.103c-61.933,0-99.481-30.309-142.957-65.404c-24.886-20.088-48.814-42.195-107.654-42.195
	c-26.284,0-42.159,5.573-70.935-2.93c-12.859-3.795-22.557-16.075-22.557-28.563v-29.693c16.233,16.854,40.141,24.851,63.74,22.71
	c0.036-0.003,0.071-0.005,0.107-0.009l0.262-0.022c0.034-0.003,0.068-0.006,0.102-0.009c27.892-2.67,52.38-1.759,74.865,2.787
	c27.129,5.476,50.352,16.023,70.993,32.243c48.967,38.504,79.676,71.133,135.526,71.133c18.941-0.001,38.325-3.76,56.795-8.78
	c29.019-7.934,53.533-25.979,69.52-49.274V325.516z"/>
<g>
</g>
<g>
</g>
<g>
</g>
<g>
</g>
<g>
</g>
<g>
</g>
<g>
</g>
<g>
</g>
<g>
</g>
<g>
</g>
<g>
</g>
<g>
</g>
<g>
</g>
<g>
</g>
<g>
</g>
</svg>
