<?xml version="1.0" encoding="iso-8859-1"?>
<!-- Generator: Adobe Illustrator 19.0.0, SVG Export Plug-In . SVG Version: 6.00 Build 0)  -->
<svg version="1.1" id="Capa_1" xmlns="http://www.w3.org/2000/svg" xmlns:xlink="http://www.w3.org/1999/xlink" x="0px" y="0px"
	 viewBox="0 0 512 512" style="enable-background:new 0 0 512 512;" xml:space="preserve">
<path style="fill:#307E45;" d="M295.349,65.191c-14.446,14.361-22.552,33.901-22.527,54.269v8.874
	c-0.307-0.068-0.623-0.102-0.939-0.085c-1.877-0.171-3.754-0.256-5.717-0.256h-20.82c-2.142-0.017-4.275,0.102-6.4,0.341
	c-0.051-0.068-0.154-0.085-0.23-0.026c-0.009,0.009-0.017,0.017-0.026,0.026v-8.874c0-61.266,49.662-110.928,110.928-110.928v34.132
	C329.242,42.639,309.71,50.745,295.349,65.191z"/>
<path style="fill:#348A45;" d="M341.086,416.193v12.33c0.051,21.597-9.292,42.153-25.599,56.317
	c13.636,11.98,31.171,18.593,49.32,18.602h0.171c39.371-0.051,72.009-30.522,74.748-69.799l11.229-164.992
	C430.391,327.971,392.019,379.492,341.086,416.193z"/>
<path style="fill:#2A7038;" d="M341.086,428.523v-12.33c-45.762,33.039-99.852,52.614-156.152,56.53
	c3.242,4.437,6.963,8.499,11.093,12.117c3.294,2.85,6.801,5.444,10.495,7.765h0.085c3.806,2.304,7.799,4.275,11.946,5.888
	c1.877,0.683,3.754,1.365,5.717,1.963c2.475,0.683,5.034,1.28,7.594,1.792c1.877,0.341,3.84,0.597,5.802,0.768
	c0.427,0.068,0.853,0.102,1.28,0.085c2.125,0.239,4.258,0.358,6.4,0.341h20.82c2.142,0.017,4.275-0.102,6.4-0.341
	c0.427,0.017,0.853-0.017,1.28-0.085c1.963-0.171,3.925-0.427,5.802-0.768c2.56-0.512,5.12-1.109,7.594-1.792
	c1.963-0.597,3.84-1.28,5.717-1.963c4.147-1.613,8.14-3.584,11.946-5.888h0.085c3.695-2.321,7.202-4.915,10.495-7.765
	C331.793,470.675,341.137,450.119,341.086,428.523z"/>
<path style="fill:#348A45;" d="M184.933,472.723c-7.142,0.495-14.327,0.853-21.597,0.853c-28.321,0-56.496-3.959-83.716-11.758
	c18.337,37.024,63.22,52.179,100.245,33.841c5.837-2.893,11.263-6.528,16.161-10.82C191.888,481.222,188.167,477.16,184.933,472.723
	z"/>
<path style="fill:#3C9E4F;" d="M380.337,127.994h-15.53c-18.149,0.009-35.685,6.622-49.32,18.602
	c16.306,14.165,25.65,34.72,25.599,56.317v213.28c50.941-36.7,89.305-88.222,109.87-147.543l4.13-60.584
	c2.824-41.299-28.363-77.069-69.654-79.894C383.733,128.053,382.035,127.994,380.337,127.994z"/>
<path style="fill:#328542;" d="M315.487,146.595c-3.294-2.85-6.801-5.444-10.495-7.765h-0.085
	c-3.806-2.304-7.799-4.275-11.946-5.888c-1.877-0.683-3.754-1.365-5.717-1.963c-2.475-0.683-5.034-1.28-7.594-1.792
	c-1.877-0.341-3.84-0.597-5.802-0.768c-0.333-0.068-0.683-0.102-1.024-0.085c-0.307-0.068-0.623-0.102-0.939-0.085
	c-1.877-0.171-3.754-0.256-5.717-0.256h-20.82c-2.142-0.017-4.275,0.102-6.4,0.341c-0.051-0.068-0.154-0.085-0.23-0.026
	c-0.009,0.009-0.017,0.017-0.026,0.026c-0.341-0.017-0.691,0.017-1.024,0.085c-1.963,0.171-3.925,0.427-5.802,0.768
	c-2.56,0.512-5.12,1.109-7.594,1.792c-1.963,0.597-3.84,1.28-5.717,1.963c-4.147,1.613-8.14,3.584-11.946,5.888h-0.085
	c-3.695,2.321-7.202,4.915-10.495,7.765c-16.306,14.165-25.65,34.72-25.599,56.317v225.61c-0.017,15.905,5.069,31.401,14.506,44.2
	c56.3-3.917,110.39-23.491,156.152-56.53v-213.28C341.137,181.316,331.793,160.76,315.487,146.595z"/>
<path style="fill:#3C9E4F;" d="M184.933,472.723c-9.446-12.799-14.523-28.295-14.506-44.2v-225.61
	c-0.051-21.597,9.292-42.153,25.599-56.317c-13.636-11.98-31.171-18.593-49.32-18.602h-15.018
	c-41.368-0.009-74.91,33.526-74.91,74.893c0,1.664,0.051,3.319,0.162,4.975l15.018,225.61c0.657,9.864,3.268,19.498,7.68,28.346
	c27.211,7.791,55.379,11.75,83.682,11.758C170.59,473.576,177.774,473.226,184.933,472.723z"/>
<path d="M448.225,434.18l15.359-225.576c3.14-45.984-31.597-85.807-77.581-88.947c-1.894-0.128-3.78-0.196-5.666-0.196h-15.513
	c-17.757,0.009-35.045,5.683-49.337,16.213c-0.316-0.23-0.648-0.427-0.956-0.649c-1.178-0.853-2.381-1.647-3.601-2.432
	c-0.811-0.521-1.638-1.015-2.475-1.502c-1.254-0.751-2.56-1.485-3.814-2.167c-0.853-0.427-1.655-0.802-2.483-1.195
	c-2.355-1.135-4.761-2.159-7.227-3.063c-1.015-0.375-2.022-0.785-3.055-1.118c-1.169-0.384-2.381-0.7-3.575-1.024
	c-1.195-0.324-2.509-0.691-3.78-0.973c-1.05-0.239-2.099-0.452-3.166-0.649v-1.442c0.043-37.681,30.582-68.221,68.263-68.263
	c4.71,0,8.533-3.823,8.533-8.533V8.533c0-4.71-3.823-8.533-8.533-8.533c-65.951,0.068-119.392,53.51-119.461,119.461v1.459
	c-1.067,0.196-2.116,0.41-3.166,0.648c-1.271,0.282-2.56,0.623-3.78,0.973c-1.22,0.35-2.406,0.64-3.575,1.024
	c-1.032,0.333-2.039,0.742-3.055,1.118c-2.466,0.913-4.872,1.937-7.227,3.063c-0.853,0.393-1.707,0.768-2.483,1.195
	c-1.297,0.683-2.56,1.416-3.814,2.167c-0.853,0.486-1.707,0.981-2.475,1.502c-1.22,0.785-2.423,1.587-3.601,2.432
	c-0.307,0.222-0.64,0.418-0.956,0.648c-14.293-10.53-31.58-16.221-49.337-16.23h-14.992c-46.095,0-83.469,37.366-83.477,83.46
	c0,1.852,0.06,3.695,0.188,5.546l14.992,225.576c2.995,45.95,42.673,80.772,88.623,77.777c15.897-1.041,31.171-6.604,44.004-16.059
	c0.316,0.23,0.648,0.427,0.956,0.648c1.178,0.853,2.381,1.647,3.601,2.432c0.853,0.521,1.638,1.015,2.466,1.502
	c1.263,0.751,2.56,1.485,3.831,2.167c0.802,0.427,1.638,0.794,2.457,1.186c2.355,1.135,4.77,2.159,7.244,3.072
	c1.015,0.375,2.022,0.785,3.055,1.118c1.169,0.384,2.381,0.7,3.575,1.024c1.195,0.324,2.509,0.691,3.78,0.973
	c1.109,0.256,2.227,0.478,3.345,0.683c1.527,0.282,3.063,0.503,4.599,0.7c0.93,0.119,1.852,0.256,2.79,0.341
	c2.56,0.23,5.077,0.384,7.637,0.384h20.786c2.56,0,5.12-0.154,7.637-0.384c0.939-0.085,1.86-0.222,2.79-0.341
	c1.536-0.196,3.072-0.418,4.599-0.7c1.118-0.205,2.236-0.427,3.345-0.683c1.271-0.282,2.56-0.623,3.78-0.973
	c1.22-0.35,2.406-0.64,3.575-1.024c1.032-0.333,2.039-0.742,3.055-1.118c2.475-0.913,4.889-1.937,7.244-3.072
	c0.853-0.393,1.655-0.759,2.457-1.186c1.306-0.683,2.56-1.416,3.831-2.167c0.853-0.486,1.655-0.981,2.466-1.502
	c1.22-0.785,2.423-1.587,3.601-2.432c0.307-0.222,0.64-0.418,0.956-0.648c37.144,27.314,89.391,19.344,116.705-17.8
	c9.395-12.774,14.95-27.954,16.033-43.765L448.225,434.18z M341.086,17.424v17.134c-43.578,4.437-76.745,41.103-76.796,84.902
	h-17.066C247.283,66.241,288.054,21.921,341.086,17.424z M146.689,494.909c-34.934-0.077-63.869-27.143-66.258-62L65.473,207.35
	c-2.449-36.589,25.232-68.229,61.821-70.678c1.459-0.094,2.927-0.145,4.403-0.145h14.992c12.953,0.034,25.607,3.865,36.401,11.025
	c-13.644,15.223-21.187,34.942-21.196,55.379v225.576c0.009,20.436,7.552,40.156,21.196,55.379
	C172.296,491.043,159.633,494.874,146.689,494.909z M309.582,478.619c-1.229,1.058-2.5,2.065-3.789,3.029l-1.024,0.768
	c-1.28,0.913-2.56,1.775-3.934,2.56l-1.212,0.742c-1.314,0.768-2.654,1.485-4.01,2.159c-0.478,0.247-0.973,0.478-1.459,0.708
	c-1.314,0.614-2.654,1.195-4.002,1.707c-0.597,0.23-1.195,0.444-1.792,0.657c-1.288,0.461-2.56,0.853-3.891,1.271
	c-0.759,0.213-1.536,0.401-2.304,0.589c-1.186,0.299-2.381,0.597-3.584,0.853c-1.067,0.205-2.15,0.341-3.225,0.495
	c-1.075,0.154-1.911,0.299-2.867,0.393c-2.091,0.205-4.198,0.324-6.34,0.324h-20.786c-2.142,0-4.266-0.119-6.34-0.324
	c-0.956-0.094-1.911-0.256-2.867-0.393c-0.956-0.137-2.159-0.29-3.225-0.495c-1.203-0.23-2.398-0.529-3.584-0.853
	c-0.768-0.188-1.544-0.375-2.304-0.589c-1.314-0.384-2.603-0.811-3.891-1.271c-0.597-0.213-1.195-0.427-1.792-0.657
	c-1.348-0.529-2.688-1.109-4.002-1.707c-0.486-0.23-0.981-0.461-1.459-0.708c-1.357-0.674-2.688-1.391-4.01-2.159l-1.212-0.742
	c-1.34-0.853-2.654-1.707-3.934-2.56l-1.024-0.768c-1.288-0.964-2.56-1.971-3.789-3.029c-14.574-12.569-22.962-30.864-22.971-50.114
	V202.93c0.009-19.25,8.396-37.545,22.971-50.114c1.229-1.058,2.5-2.065,3.789-3.029l1.024-0.768c1.28-0.913,2.56-1.775,3.925-2.56
	c0.41-0.256,0.853-0.512,1.229-0.751c1.306-0.768,2.645-1.485,3.993-2.159l1.468-0.708c1.314-0.614,2.654-1.195,4.002-1.707
	c0.597-0.23,1.195-0.444,1.792-0.657c1.288-0.461,2.56-0.853,3.891-1.271c0.759-0.222,1.536-0.401,2.312-0.597
	c1.178-0.299,2.372-0.589,3.567-0.853c1.195-0.265,2.167-0.35,3.251-0.503c1.084-0.154,1.894-0.299,2.85-0.384
	c2.091-0.205,4.198-0.324,6.34-0.324h20.786c2.142,0,4.266,0.119,6.34,0.324c0.956,0.085,1.894,0.256,2.85,0.384
	c0.956,0.128,2.176,0.299,3.251,0.503c1.075,0.205,2.389,0.521,3.567,0.853c0.776,0.196,1.553,0.375,2.312,0.597
	c1.314,0.384,2.56,0.811,3.891,1.271c0.597,0.213,1.195,0.427,1.792,0.657c1.348,0.529,2.688,1.109,4.002,1.707l1.468,0.708
	c1.348,0.674,2.688,1.391,3.993,2.159c0.41,0.239,0.853,0.495,1.229,0.751c1.331,0.853,2.645,1.707,3.925,2.56
	c0.341,0.247,0.683,0.512,1.024,0.768c1.288,0.964,2.56,1.971,3.789,3.029c14.574,12.569,22.962,30.864,22.971,50.114v225.576
	C332.536,447.756,324.156,466.05,309.582,478.619z M364.824,494.909c-12.953-0.034-25.607-3.865-36.401-11.025
	c13.644-15.223,21.187-34.942,21.196-55.379V202.93c-0.009-20.436-7.552-40.156-21.196-55.379
	c10.794-7.159,23.448-10.99,36.401-11.025h15.513c36.674,0.009,66.403,29.737,66.395,66.412c0,1.51-0.051,3.012-0.154,4.514
	l-15.359,225.576C428.736,467.876,399.749,494.883,364.824,494.909z"/>
<g>
</g>
<g>
</g>
<g>
</g>
<g>
</g>
<g>
</g>
<g>
</g>
<g>
</g>
<g>
</g>
<g>
</g>
<g>
</g>
<g>
</g>
<g>
</g>
<g>
</g>
<g>
</g>
<g>
</g>
</svg>
