<svg id="Capa_1" enable-background="new 0 0 512 512" height="512" viewBox="0 0 512 512" width="512" xmlns="http://www.w3.org/2000/svg"><g><path d="m444.038 402.386c-1.509 1.509-2.868 3.112-4.084 4.785l-73.757-73.757-32.783 32.783 73.757 73.757c-1.674 1.216-3.276 2.575-4.785 4.084-15.547 15.547-15.547 40.755 0 56.302s40.755 15.547 56.302 0c8.253-8.253 12.125-19.229 11.615-30.037 10.808.509 21.783-3.362 30.037-11.615 15.547-15.547 15.547-40.755 0-56.302-15.548-15.548-40.755-15.548-56.302 0z" fill="#f3f0f3"/><path d="m509.299 444.963c-1.92-5.46-5.058-10.59-9.424-14.957-15.545-15.555-40.751-15.555-56.296 0-.015.015-.03.03-.045.045-2.406 2.414-6.28 2.496-8.69.086l-82.686-82.686 14.038-14.038 73.76 73.76c1.218-1.682 2.57-3.282 4.077-4.789 15.555-15.545 40.761-15.545 56.306 0 11.51 11.51 14.503 28.314 8.96 42.579z" fill="#e2dee2"/><path d="m266.237 17.962-124.013 124.013-.249.249-124.013 124.013s100.063 113.783 229.196 126.267c8.57.828 17.184 1.2 25.793 1.085 18.589-.248 36.59-.836 55.216.885 4.969.459 9.926 1.043 14.867 1.739 9.751 1.374 18.996 3.913 28.069 7.674.003-.003 32.841-32.728 32.844-32.73-3.761-9.072-6.36-18.371-7.734-28.122-.696-4.941-1.281-9.898-1.739-14.867-1.72-18.626-1.133-36.627-.885-55.216.115-8.609-.256-17.224-1.085-25.794-12.484-129.133-126.267-229.196-126.267-229.196z" fill="#d77f4a"/><path d="m403.949 371.156s-8.948 8.899-14.068 14.019c-1.466-5.987-5.891-15.02-7.593-18.111-5.807-10.549-8.598-19.756-10.146-31.802-.692-5.45-1.105-10.941-1.352-16.422-.475-10.539-.289-21.088-.227-31.626.134-23.224.423-46.954-4.986-69.683-3.53-14.833-8.247-29.376-13.945-43.517-10.57-26.259-24.473-51.135-40.565-74.411-2.539-3.675-38.583-48.936-57.524-68.94l12.696-12.696s113.778 100.06 126.268 229.187c.826 8.577 1.197 17.186 1.084 25.794-.248 18.59-.836 36.591.888 55.222.454 4.965 1.043 9.919 1.734 14.864 1.372 9.754 3.979 19.049 7.736 28.122z" fill="#c86d36"/><ellipse cx="142.1" cy="142.1" fill="#e8ad8c" rx="175.733" ry="97.406" transform="matrix(.707 -.707 .707 .707 -58.86 142.1)"/><path d="m210.976 210.976c-49.566 49.566-108.442 76.268-151.649 72.945 40.317-4.562 89.367-30.202 131.645-72.48 68.63-68.63 93.423-155.097 55.387-193.133-10.569-10.57-24.865-16.289-41.483-17.568 25.134-2.849 46.882 2.498 61.488 17.103 38.035 38.036 13.242 124.503-55.388 193.133z" fill="#e19974"/><ellipse cx="142.1" cy="142.1" fill="#9e5528" rx="138.87" ry="69.017" transform="matrix(.707 -.707 .707 .707 -58.86 142.1)"/><path d="m190.9 190.9c-49.132 49.132-107.771 71.913-138.406 55.707 32.369 1.93 78.87-20.623 119.011-60.765 54.231-54.231 76.351-120.044 49.39-146.994-2.529-2.529-5.409-4.635-8.577-6.307 11.354.681 20.984 4.366 27.983 11.364 26.95 26.951 4.83 92.764-49.401 146.995z" fill="#904d24"/><ellipse cx="181.669" cy="103.003" fill="#ecbba3" rx="39.755" ry="20.697" transform="matrix(.676 -.737 .737 .676 -17.023 167.305)"/><path d="m196.928 116.995c-14.843 16.174-33.701 23.038-42.124 15.307-2.611-2.395-3.922-5.925-4.026-10.126 9.032-1.27 20.252-7.824 29.81-18.249 10.239-11.158 15.885-23.844 15.638-33.164 4.985-.723 9.31.186 12.304 2.931 8.433 7.732 3.23 27.116-11.602 43.301z" fill="#e8ad8c"/></g></svg>