<svg height="512pt" viewBox="0 -40 512 512" width="512pt" xmlns="http://www.w3.org/2000/svg"><path d="m504.484375 280.046875c0 79.683594-64.597656 144.28125-144.28125 144.28125s-144.28125-64.597656-144.28125-144.28125 64.597656-144.28125 144.28125-144.28125 144.28125 64.597656 144.28125 144.28125zm0 0" fill="#8edf78"/><path d="m472.421875 280.046875c0 61.976563-50.242187 112.21875-112.21875 112.21875s-112.21875-50.242187-112.21875-112.21875 50.242187-112.21875 112.21875-112.21875 112.21875 50.242187 112.21875 112.21875zm0 0" fill="#31a469"/><path d="m424.328125 280.046875c0 35.414063-28.710937 64.125-64.125 64.125s-64.125-28.710937-64.125-64.125 28.710937-64.125 64.125-64.125 64.125 28.710937 64.125 64.125zm0 0" fill="#8edf78"/><path d="m384.25 280.046875c0 13.28125-10.765625 24.046875-24.046875 24.046875s-24.046875-10.765625-24.046875-24.046875 10.765625-24.046875 24.046875-24.046875 24.046875 10.765625 24.046875 24.046875zm0 0" fill="#f6e23d"/><g fill="#fff"><path d="m352.6875 183.859375h15.03125v16.03125h-15.03125zm0 0"/><path d="m286.871094 342.746094 11.335937-11.335938 10.625 10.628906-11.335937 11.335938zm0 0"/><path d="m411.5625 342.042969 10.628906-10.628907 11.335938 11.335938-10.628906 10.628906zm0 0"/></g><path d="m296.078125 151.796875c0 79.683594-64.597656 144.28125-144.28125 144.28125s-144.28125-64.597656-144.28125-144.28125 64.597656-144.28125 144.28125-144.28125 144.28125 64.597656 144.28125 144.28125zm0 0" fill="#8edf78"/><path d="m264.015625 151.796875c0 61.976563-50.242187 112.21875-112.21875 112.21875s-112.21875-50.242187-112.21875-112.21875 50.242187-112.21875 112.21875-112.21875 112.21875 50.242187 112.21875 112.21875zm0 0" fill="#31a469"/><path d="m215.921875 151.796875c0 35.414063-28.710937 64.125-64.125 64.125s-64.125-28.710937-64.125-64.125 28.710937-64.125 64.125-64.125 64.125 28.710937 64.125 64.125zm0 0" fill="#8edf78"/><path d="m175.84375 151.796875c0 13.28125-10.765625 24.046875-24.046875 24.046875s-24.046875-10.765625-24.046875-24.046875 10.765625-24.046875 24.046875-24.046875 24.046875 10.765625 24.046875 24.046875zm0 0" fill="#f6e23d"/><path d="m360.203125 128.25c-19.867187 0-39.027344 3.746094-57.121094 11.125-6.339843-77.910156-71.765625-139.375-151.285156-139.375-83.699219 0-151.796875 68.097656-151.796875 151.796875s68.097656 151.796875 151.796875 151.796875c20.195313 0 39.476563-3.972656 57.117187-11.167969 6.320313 77.933594 71.757813 139.417969 151.289063 139.417969 83.699219 0 151.796875-68.097656 151.796875-151.796875s-68.097656-151.796875-151.796875-151.796875zm-208.40625 160.3125c-75.414063 0-136.765625-61.351562-136.765625-136.765625s61.351562-136.765625 136.765625-136.765625 136.765625 61.351562 136.765625 136.765625-61.351562 136.765625-136.765625 136.765625zm208.40625 128.25c-73.578125 0-133.757813-58.402344-136.648437-131.285156 27.871093-15.015625 50.535156-38.488282 64.539062-66.960938l16.449219 16.445313c-9.980469 12.316406-16.230469 27.984375-16.230469 45.035156 0 36.964844 28.808594 67.472656 63.875 71.242187v33.164063c-22.042969-1.625-43.9375-10.535156-61.113281-25.546875-18.886719-16.511719-31.105469-39.199219-34.636719-63.890625l-14.816406 2.125c4.039062 28.25 18.1875 54.207031 39.78125 73.082031 21.804687 19.0625 49.792968 29.558594 78.785156 29.558594 66.023438 0 119.742188-53.710938 119.742188-119.734375s-53.707032-119.734375-119.730469-119.734375c-14.730469 0-29.117188 2.648438-42.761719 7.863281l5.371094 14.039063c11.921875-4.558594 24.503906-6.871094 37.394531-6.871094 26.167969 0 50.125 9.648438 68.5 25.578125l-23.46875 23.464844c-12.3125-9.984375-27.980469-15.980469-45.03125-15.980469s-32.71875 5.996094-45.03125 15.980469l-20.710937-20.714844c5.5-15.082031 8.675781-31.269531 9.085937-48.136719 17.804687-8.128906 36.839844-12.253906 56.65625-12.253906 75.414063 0 136.765625 61.351562 136.765625 136.765625s-61.351562 136.765625-136.765625 136.765625zm56.609375-136.765625c0 31.214844-25.394531 56.609375-56.609375 56.609375s-56.609375-25.394531-56.609375-56.609375 25.394531-56.609375 56.609375-56.609375 56.609375 25.394531 56.609375 56.609375zm-1.074219-45.03125 23.59375-23.46875c15.925781 18.375 25.324219 42.332031 25.324219 68.5 0 55.207031-42.332031 100.566406-97.4375 104.433594v-33.191407c36.070312-3.765624 64.375-34.277343 64.375-71.242187 0-17.050781-5.871094-32.71875-15.855469-45.03125zm0 0"/><path d="m387.1875 263.941406 10.394531-10.515625-10.628906-10.691406-10.644531 10.359375c-2.707032-1.648438-5.082032-2.921875-9.089844-3.695312v-17.445313h-15.03125v17.441406c-3.003906.777344-5.882812 2.023438-8.589844 3.667969l-10.269531-10.390625-10.5625 10.625 10.421875 10.644531c-1.648438 2.707032-2.859375 5.082032-3.636719 9.089844h-17.441406v15.03125h17.441406c.777344 3.003906 2.019531 5.882812 3.667969 8.589844l-10.390625 10.265625 10.625 10.566406 10.144531-10.421875c2.707032 1.644531 5.582032 2.859375 8.589844 3.632812v17.445313h15.027344v-17.441406c4.007812-.777344 6.386718-2.019531 9.09375-3.667969l10.515625 10.394531 10.691406-10.628906-10.359375-10.144531c1.648438-2.707032 2.921875-5.582032 3.695312-8.589844h17.445313v-15.027344h-17.441406c-.777344-4.007812-2.019531-6.386718-3.667969-9.09375zm-26.984375 32.636719c-9.117187 0-16.53125-7.414063-16.53125-16.53125s7.414063-16.53125 16.53125-16.53125 16.53125 7.414063 16.53125 16.53125-7.414063 16.53125-16.53125 16.53125zm0 0"/><path d="m264.015625 273.035156h16.03125v15.027344h-16.03125zm0 0"/><path d="m440.359375 273.035156h16.03125v15.027344h-16.03125zm0 0"/><path d="m151.796875 32.0625c-66.023437 0-119.734375 53.710938-119.734375 119.734375s53.710938 119.734375 119.734375 119.734375 119.734375-53.710938 119.734375-119.734375-53.710938-119.734375-119.734375-119.734375zm0 15.03125c26.167969 0 50.125 9.648438 68.5 25.574219l-23.46875 23.464843c-12.3125-9.980468-27.980469-15.976562-45.03125-15.976562s-32.71875 5.996094-45.035156 15.976562l-23.464844-23.464843c18.375-15.925781 42.332031-25.574219 68.5-25.574219zm-8.015625 209.132812c-54.105469-3.863281-96.941406-49.222656-96.941406-104.429687 0-26.167969 9.777344-50.125 25.703125-68.5l23.53125 23.464844c-9.984375 12.316406-16.199219 27.984375-16.199219 45.035156 0 36.964844 28.835938 67.472656 63.90625 71.242187zm-48.59375-104.429687c0-31.214844 25.394531-56.609375 56.609375-56.609375s56.609375 25.394531 56.609375 56.609375-25.394531 56.609375-56.609375 56.609375-56.609375-25.394531-56.609375-56.609375zm63.621094 104.429687v-33.1875c36.070312-3.769531 64.378906-34.28125 64.378906-71.242187 0-17.050781-5.875-32.71875-15.855469-45.035156l23.527344-23.464844c15.929687 18.375 25.359375 42.332031 25.359375 68.5 0 55.207031-42.300781 100.566406-97.410156 104.429687zm0 0"/><path d="m182.449219 159.8125h17.441406v-15.03125h-17.441406c-.777344-4.007812-2.019531-6.382812-3.667969-9.089844l10.390625-10.519531-10.625-10.6875-10.644531 10.359375c-2.707032-1.644531-5.085938-2.921875-9.09375-3.695312v-17.445313h-15.027344v17.441406c-3.007812.777344-5.882812 2.019531-8.589844 3.667969l-10.269531-10.394531-10.566406 10.628906 10.425781 10.644531c-1.648438 2.707032-2.859375 5.082032-3.636719 9.089844h-17.441406v15.03125h17.441406c.777344 3.003906 2.019531 5.882812 3.667969 8.589844l-10.394531 10.265625 10.628906 10.566406 10.140625-10.421875c2.707031 1.644531 5.585938 2.859375 8.59375 3.632812v17.445313h15.027344v-17.441406c4.007812-.777344 6.386718-2.023438 9.09375-3.667969l10.515625 10.390625 10.691406-10.625-10.359375-10.144531c1.644531-2.707032 2.921875-5.585938 3.699219-8.589844zm-30.652344 8.515625c-9.117187 0-16.53125-7.414063-16.53125-16.53125s7.414063-16.53125 16.53125-16.53125 16.53125 7.414063 16.53125 16.53125-7.414063 16.53125-16.53125 16.53125zm0 0"/><path d="m55.609375 144.78125h16.03125v15.03125h-16.03125zm0 0"/><path d="m231.953125 144.78125h16.03125v15.03125h-16.03125zm0 0"/><path d="m144.28125 55.609375h15.03125v16.03125h-15.03125zm0 0" fill="#fff"/><path d="m78.464844 214.496094 11.335937-11.335938 10.628907 10.628906-11.335938 11.335938zm0 0" fill="#fff"/><path d="m203.15625 213.792969 10.628906-10.628907 11.335938 11.335938-10.628906 10.625zm0 0" fill="#fff"/></svg>