<svg id="Capa_1" enable-background="new 0 0 512 512" height="512" viewBox="0 0 512 512" width="512" xmlns="http://www.w3.org/2000/svg"><g><g><path d="m316.241 512h-120.5c-8.284 0-15-6.716-15-15v-133.658c0-8.284 6.716-15 15-15h120.5c8.284 0 15 6.716 15 15v133.658c0 8.284-6.716 15-15 15z" fill="#f5dd90"/></g><path d="m316.241 348.342h-60.25v163.658h60.25c8.284 0 15-6.716 15-15v-133.658c0-8.284-6.716-15-15-15z" fill="#efc277"/><g><g><path d="m311.658 378.342h-111.334c-27.409 0-49.708-22.299-49.708-49.708v-55.667c0-8.284 6.716-15 15-15h180.75c8.284 0 15 6.716 15 15v55.667c0 27.409-22.299 49.708-49.708 49.708z" fill="#8f5041"/></g></g><path d="m346.366 257.967h-90.375v120.375h55.667c27.409 0 49.708-22.299 49.708-49.708v-55.667c0-8.284-6.716-15-15-15z" fill="#773941"/><g><g><path d="m420.103 287.967h-328.225c-31.588 0-60.553-15.917-77.48-42.579-16.958-26.708-19.041-59.757-5.574-88.408 21.738-46.25 55.95-85.416 98.938-113.264 44.145-28.599 95.402-43.716 148.229-43.716s104.084 15.117 148.23 43.717c42.987 27.849 77.199 67.015 98.938 113.264 13.467 28.651 11.384 61.7-5.574 88.408-16.929 26.661-45.894 42.578-77.482 42.578z" fill="#efc277"/></g></g><path d="m420.122 287.967c31.588 0 60.553-15.917 77.48-42.579 16.958-26.708 19.041-59.757 5.574-88.408-21.738-46.25-55.95-85.416-98.938-113.264-44.145-28.599-95.402-43.716-148.229-43.716v287.967z" fill="#e9a43a"/></g></svg>