<svg id="Layer_1" enable-background="new 0 0 511.476 511.476" height="512" viewBox="0 0 511.476 511.476" width="512" xmlns="http://www.w3.org/2000/svg"><path d="m508.917 293.335-24.821-200.037c-1.339-10.792-12.859-17.147-22.704-12.5l-449.768 212.159c-7.106 3.352-10.727 11.367-8.544 18.915l12.261 42.401c2.576 8.91 12.185 13.783 20.904 10.568 12.681-4.675 26.315 4.733 26.315 18.36 0 9.537-6.807 17.638-16.186 19.26-9.2 1.589-15.1 10.707-12.767 19.758l19.871 77.112c1.828 7.095 8.224 12.008 15.494 12.008 5.304 0-22.876 12.481 430.894-201.564 6.252-2.949 9.903-9.58 9.051-16.44z" fill="#eed572"/><path d="m484.096 93.298c-1.339-10.792-12.859-17.147-22.704-12.5l-449.768 212.159c-7.106 3.352-10.727 11.367-8.544 18.915l12.261 42.401c2.576 8.91 12.185 13.783 20.904 10.568 12.681-4.675 26.315 4.733 26.315 18.36 0 9.537-6.807 17.638-16.186 19.26-6.74 1.164-12.227 6.561-13.13 13.781 33.063 6.07 83.371-5.782 157.733-67.164 161.983-133.707 249.751-135.222 309.567-123.228z" fill="#fee67b"/><path d="m397.06 170.421c-27.911 0-50.619 22.708-50.619 50.619s22.708 50.618 50.619 50.618 50.618-22.707 50.618-50.618-22.707-50.619-50.618-50.619z" fill="#feeb95"/><path d="m184.607 305.51c-24.024 0-43.569 19.545-43.569 43.569s19.545 43.569 43.569 43.569 43.57-19.545 43.57-43.569-19.546-43.569-43.57-43.569z" fill="#feeb95"/><path d="m434.92 187.493c-30.81-34.733-88.479-12.933-88.479 33.547 0 9.422 2.595 18.246 7.097 25.808 39.701-9.04 43.377-34.236 81.382-59.355z" fill="#f9e8a2"/><path d="m228.021 352.619c2.074-25.661-18.281-47.109-43.414-47.109-23.895 0-43.351 19.337-43.56 43.184 9.972 3.081 20.791 4.357 29.684.386 10.946-4.889 34.955-1.458 57.29 3.539z" fill="#f9e8a2"/><path d="m479.926 84.364c-90.997-97.707-226.806-97.068-356.841-65.254-5.03 1.231-9.153 4.819-11.066 9.632l-49.688 124.989c-2.548 6.409-.702 13.729 4.579 18.164 10.438 8.765 3.678 25.829-9.967 25.068-6.881-.402-13.25 3.654-15.797 10.063l-37.564 94.492c-4.176 10.503 3.584 21.913 14.872 21.91 5.551 0-24.296 13.149 456.59-213.688 9.781-4.614 12.272-17.443 4.882-25.376z" fill="#feeb95"/><path d="m123.085 19.11c-5.03 1.231-9.153 4.819-11.066 9.632l-37.265 93.74c18.062-1.895 40.788-7.288 69.377-17.678 154.794-56.254 171.865-55.441 208.448-14.794 14.702 16.336 43.85 31.175 73.824 42.673l48.641-22.944c9.781-4.613 12.271-17.442 4.882-25.375-90.997-97.707-226.806-97.068-356.841-65.254z" fill="#f9e8a2"/><path d="m197.618 82.867c-34.607 0-61.716 19.511-61.716 44.419s27.109 44.419 61.716 44.419 61.716-19.511 61.716-44.419-27.109-44.419-61.716-44.419z" fill="#eed572"/><path d="m197.618 82.867c-34.607 0-61.716 19.511-61.716 44.419 0 0 65.696 11.718 79.343 0 10.662-9.155 27.074-2.431 42.899 8.888 8.155-30.019-23.836-53.307-60.526-53.307z" fill="#fee67b"/><g fill="#eed572"><circle cx="259.333" cy="258.578" r="19.724"/><ellipse cx="326.062" cy="80.616" rx="14.653" ry="19.724" transform="matrix(.138 -.991 .991 .138 201.357 392.488)"/></g></svg>