<svg id="Layer_1" enable-background="new 0 0 512 512" height="512" viewBox="0 0 512 512" width="512" xmlns="http://www.w3.org/2000/svg"><g><g><path d="m289.915 96.22c-1.272 41.911-10.299 74.298-33.916 74.298s-32.644-32.387-33.916-74.298c-1.973-58.192 22.023-96.22 33.916-96.22 11.364 0 35.932 36.762 33.916 96.22z" fill="#44963d"/></g><path d="m369.722 10.575c1.66-.061 2.33 2.124.924 3.01-15.831 9.972-60.479 45.161-60.479 124.865v53.165h-108.333v-53.165c0-79.704-44.648-114.893-60.479-124.865-1.406-.886-.736-3.071.924-3.01 74.78 2.764 101.256 53.752 109.896 79.579 1.235 3.692 6.416 3.692 7.651 0 8.64-25.827 35.116-76.816 109.896-79.579z" fill="#4ba543"/><path d="m255.8 191.614s0-123.413 113.917-127.879c1.66-.065 2.327 2.122.921 3.008-15.838 9.979-60.471 45.173-60.471 124.871z" fill="#3f8a38"/><path d="m256.201 191.614s0-123.413-113.917-127.879c-1.66-.065-2.327 2.122-.921 3.008 15.838 9.979 60.471 45.173 60.471 124.871z" fill="#44963d"/><path d="m256.015 512h-.029c-65.168 0-118.486-53.318-118.486-118.485v-123.593c0-65.167 53.318-118.485 118.485-118.485h.029c65.167 0 118.485 53.318 118.485 118.485v123.593c.001 65.167-53.317 118.485-118.484 118.485z" fill="#fdb720"/><path d="m374.5 269.92v123.59c0 .51 0 1.01-.02 1.52-.07 6.5-.68 12.87-1.79 19.08-9.81 55.44-58.53 97.89-116.68 97.89h-.02c-58.14 0-106.85-42.44-116.68-97.87-1.1-6.21-1.72-12.59-1.79-19.09-.02-.51-.02-1.02-.02-1.53v-123.59c0-2.97.11-5.91.33-8.82.41-5.57 1.22-11.03 2.39-16.36 11.62-53.17 59.24-93.3 115.77-93.3h.02c56.53 0 104.14 40.12 115.77 93.29 1.17 5.33 1.98 10.79 2.39 16.36.22 2.91.33 5.86.33 8.83z" fill="#fdb720"/><path d="m256 151.437c-5.237 0-10.395.349-15.457 1.015 57.941 7.632 103.043 57.532 103.043 117.456v123.622c0 59.924-45.102 109.823-103.043 117.456 5.062.665 10.221 1.014 15.457 1.014 65.175 0 118.5-53.312 118.5-118.471v-123.622c0-65.159-53.325-118.47-118.5-118.47z" fill="#fca309"/><g fill="#f06a14"><path d="m374.17 261.09-27.26 17.81c-4.7 3.07-10.77 3.06-15.46-.02l-33.86-22.11-33.88 22.13c-2.35 1.53-5.04 2.3-7.72 2.3-2.7 0-5.39-.77-7.74-2.32l-33.86-22.11-33.86 22.12c-4.7 3.07-10.77 3.07-15.46 0l-27.24-17.79c.41-5.57 1.22-11.03 2.39-16.36l32.58 21.29 33.86-22.13c4.7-3.07 10.76-3.07 15.46 0l33.87 22.12 33.87-22.12c4.69-3.07 10.76-3.07 15.46 0l33.87 22.12 32.59-21.29c1.17 5.33 1.98 10.79 2.39 16.36z"/><path d="m374.5 318.99v17.91l-27.59 18.03c-4.7 3.07-10.77 3.07-15.46-.01l-33.86-22.12-33.88 22.13c-2.35 1.53-5.04 2.3-7.72 2.3-2.7 0-5.39-.77-7.74-2.31l-33.86-22.12-33.86 22.13c-4.7 3.07-10.77 3.07-15.46 0l-27.57-18.02v-17.91l35.3 23.06 33.86-22.12c4.7-3.07 10.76-3.07 15.46 0l33.87 22.12 33.87-22.13c4.69-3.06 10.76-3.06 15.46.01l33.87 22.12z"/><path d="m374.48 395.03c-.07 6.5-.68 12.87-1.79 19.08l-25.78 16.85c-4.7 3.07-10.77 3.07-15.46-.01l-33.86-22.12-33.88 22.13c-2.35 1.54-5.04 2.3-7.72 2.3-2.7 0-5.39-.77-7.74-2.31l-33.86-22.12-33.86 22.13c-4.7 3.07-10.77 3.07-15.46 0l-25.76-16.83c-1.1-6.21-1.72-12.59-1.79-19.09l35.28 23.05 33.86-22.12c4.7-3.07 10.76-3.07 15.46 0l33.87 22.12 33.87-22.12c4.69-3.07 10.76-3.07 15.46 0l33.87 22.12z"/></g></g></svg>