<svg id="Capa_1" enable-background="new 0 0 497 497" height="512" viewBox="0 0 497 497" width="512" xmlns="http://www.w3.org/2000/svg"><g><path d="m302.422 22.589v15.671l82.828 256.1 24.183 29.241h15.291l14.359-72.19c.015-.076.031-.151.047-.226 2.9-13.489 4.37-27.345 4.37-41.184 0-88.825-59.699-163.963-141.078-187.412z" fill="#ff3a2f"/><path d="m398.5 210c0-80.475-40.455-148.776-96.078-171.741v-15.67c-17.132-4.937-35.223-7.589-53.922-7.589-107.523 0-195 87.477-195 195 0 13.838 1.47 27.694 4.37 41.184.016.075.032.15.047.226l14.359 72.19h15.291l160.933-194.591 136.749 165.351 9.216-46.327c2.678-12.457 4.035-25.253 4.035-38.033z" fill="#ff5a35"/><path d="m409.432 323.6c7.031-35.344 2.194-69.852-11.465-99.822h-29.605v155.469l25.458 22.83h15.293l15.61-78.477z" fill="#ff5a35"/><path d="m397.968 223.778c-22.669-49.741-69.643-86.979-127.023-94.77h-44.889c-91.954 12.485-157.189 100.589-138.488 194.592h-15.292l15.61 78.477h15.293l145.321-130.318s119.862 107.488 119.862 107.488l26.103-131.215c1.715-7.976 2.881-16.092 3.503-24.254z" fill="#ff7a3c"/><path d="m393.821 402.077c6.551-32.93 1.687-65.053-11.558-92.704l-81.736 129.956c0 23.529 25.871 42.671 57.671 42.671 20.292 0 37.892-14.445 41.851-34.346l9.066-45.577z" fill="#ff7a3c"/><path d="m355.336 444.728 26.926-135.354c-17.47-36.47-49.527-65.155-89.267-77.614h-88.991c-69.869 21.906-116.016 93.956-100.825 170.318h-15.293l9.066 45.577c3.959 19.9 21.559 34.345 41.851 34.345 31.8 0 57.671-19.142 57.671-42.671v-87.303c0-28.733 23.293-52.026 52.026-52.026s52.026 23.293 52.026 52.026v87.303l27.671 27.671c13.158 0 24.572-9.367 27.139-22.272z" fill="#ff9a42"/><path d="m248.5 0c-115.98 0-210 94.02-210 210 0 15.213 1.632 30.042 4.705 44.336l39.035 196.244c5.368 26.985 29.05 46.42 56.563 46.42 31.851 0 57.671-25.82 57.671-57.671 0-8.285-6.716-15-15-15s-15 6.716-15 15c0 15.258-12.413 27.671-27.671 27.671-13.158 0-24.572-9.367-27.139-22.272l-39.129-196.696c-2.678-12.456-4.035-25.252-4.035-38.032 0-80.475 53.087-148.776 126.078-171.741 19.294-6.07 38.922 8.424 38.922 28.65v43.824c-4.602 4.12-7.5 10.104-7.5 16.766s2.898 12.646 7.5 16.766v32.094l-16.82 16.82c-8.143 8.143-13.18 19.393-13.18 31.82 0 24.853 20.147 45 45 45s45-20.147 45-45c0-12.427-5.037-23.676-13.18-31.82l-16.82-16.82v-32.094c4.602-4.12 7.5-10.104 7.5-16.766s-2.898-12.646-7.5-16.766v-43.824c0-20.226 19.628-34.72 38.922-28.65 72.991 22.965 126.078 91.266 126.078 171.741 0 12.78-1.357 25.576-4.035 38.032l-39.129 196.695c-2.567 12.906-13.981 22.273-27.139 22.273-15.258 0-27.671-12.413-27.671-27.671 0-8.284-6.716-15-15-15s-15 6.716-15 15c0 31.851 25.82 57.671 57.671 57.671 27.513 0 51.195-19.435 56.563-46.42l39.035-196.244c3.073-14.294 4.705-29.124 4.705-44.336 0-115.98-94.02-210-210-210z" fill="#ffe8c2"/><circle cx="248.5" cy="225" fill="#ffc7bd" r="15"/></g></svg>