<?xml version="1.0" encoding="iso-8859-1"?>
<!-- Generator: Adobe Illustrator 19.0.0, SVG Export Plug-In . SVG Version: 6.00 Build 0)  -->
<svg version="1.1" id="Capa_1" xmlns="http://www.w3.org/2000/svg" xmlns:xlink="http://www.w3.org/1999/xlink" x="0px" y="0px"
	 viewBox="0 0 413.652 413.652" style="enable-background:new 0 0 413.652 413.652;" xml:space="preserve">
<path style="fill:#31978C;" d="M374.958,256.924c-1.5,0-2.9-0.8-3.6-2.3c-1-2-0.1-4.4,1.9-5.3c39.8-19,31.7-76.6,31.6-77.2
	c-0.3-2.2,1.2-4.2,3.4-4.5c2.2-0.3,4.2,1.2,4.5,3.4c0.1,0.6,2.4,16.1-0.8,34.3c-4.3,24.6-16.4,42.4-35.2,51.3
	C376.058,256.824,375.458,256.924,374.958,256.924z"/>
<path style="fill:#CE412D;" d="M85.658,359.924c124.9,72.7,184.3,5.1,237.6-22c84.5-43,74.8-71.7,58.4-93.7
	c-32.8-42.5-68.1-1-80.9,18.4c-57.3,85.5-137.7,80.9-187.9,82.4c-13.3,0.5-26.1-5.1-71.2-15.9
	C42.158,329.224,35.558,330.724,85.658,359.924z"/>
<path style="fill:#D15241;" d="M135.858,367.124c135.2,13.3,260.6-103.9,245.8-122.9c-31.7-41-68.1-1-80.9,18.4
	c-57.3,85.5-137.7,80.9-187.9,82.4c-13.3,0.5-26.1-5.1-71.2-15.9C42.158,329.224,109.258,364.524,135.858,367.124z"/>
<path style="fill:#31978C;" d="M327.358,127.424c-1,0-2.1-0.4-2.9-1.2c-1.5-1.6-1.5-4.1,0.1-5.7c35.4-34.5,6.7-93.1,6.4-93.6
	c-1-2-0.2-4.4,1.8-5.4s4.4-0.2,5.4,1.8c0.3,0.7,8,16.2,11,36.5c4,27.4-2.5,50.4-19,66.4
	C329.358,127.024,328.358,127.424,327.358,127.424z"/>
<path style="fill:#CE412D;" d="M57.558,338.424c158.2,33.8,197.6-59.4,244.2-106.5c74.8-75.3,54.3-102.4,29.2-119.8
	c-49.2-34.3-72.2,22.5-79.4,47.6c-30.7,110.6-117.7,134.2-170.5,152.6c-14.3,5.1-29.7,4.1-80.9,8.2
	C0.158,321.024-5.942,324.624,57.558,338.424z"/>
<path style="fill:#D15241;" d="M113.358,328.224c148-33.3,240.1-201.2,218.1-216.1c-48.1-32.8-72.7,22.5-79.9,47.6
	c-30.7,110.6-117.7,134.2-170.5,152.6c-14.3,5.1-29.7,4.1-80.9,8.2C0.158,321.024,84.158,334.324,113.358,328.224z"/>
<g>
</g>
<g>
</g>
<g>
</g>
<g>
</g>
<g>
</g>
<g>
</g>
<g>
</g>
<g>
</g>
<g>
</g>
<g>
</g>
<g>
</g>
<g>
</g>
<g>
</g>
<g>
</g>
<g>
</g>
</svg>
